<mxfile host="app.diagrams.net" modified="2024-06-30T22:47:45.037Z" agent="Mozilla/5.0 (Windows NT 10.0; Win64; x64; rv:127.0) Gecko/20100101 Firefox/127.0" etag="H4nYVKykKpckKCvYrF_j" version="24.3.1" type="github">
  <diagram name="Page-1" id="Hr1ctrNNP3XaFehZGqBM">
    <mxGraphModel dx="1050" dy="577" grid="1" gridSize="10" guides="1" tooltips="1" connect="1" arrows="1" fold="1" page="1" pageScale="1" pageWidth="850" pageHeight="1100" math="0" shadow="0">
      <root>
        <mxCell id="0" />
        <mxCell id="1" parent="0" />
        <mxCell id="rF3TZCfOxEf6gZp-wX7_-2" value="Actor" style="shape=umlActor;verticalLabelPosition=bottom;verticalAlign=top;html=1;outlineConnect=0;" vertex="1" parent="1">
          <mxGeometry x="160" y="110" width="30" height="60" as="geometry" />
        </mxCell>
        <mxCell id="rF3TZCfOxEf6gZp-wX7_-3" value="Actor" style="shape=umlActor;verticalLabelPosition=bottom;verticalAlign=top;html=1;outlineConnect=0;" vertex="1" parent="1">
          <mxGeometry x="160" y="370" width="30" height="60" as="geometry" />
        </mxCell>
        <mxCell id="rF3TZCfOxEf6gZp-wX7_-4" value="" style="whiteSpace=wrap;html=1;aspect=fixed;" vertex="1" parent="1">
          <mxGeometry x="270" y="80" width="510" height="510" as="geometry" />
        </mxCell>
        <mxCell id="rF3TZCfOxEf6gZp-wX7_-6" value="manage users" style="ellipse;whiteSpace=wrap;html=1;" vertex="1" parent="1">
          <mxGeometry x="380" y="120" width="120" height="50" as="geometry" />
        </mxCell>
        <mxCell id="rF3TZCfOxEf6gZp-wX7_-7" value="" style="endArrow=none;html=1;rounded=0;" edge="1" parent="1" target="rF3TZCfOxEf6gZp-wX7_-6">
          <mxGeometry width="50" height="50" relative="1" as="geometry">
            <mxPoint x="190" y="150" as="sourcePoint" />
            <mxPoint x="240" y="100" as="targetPoint" />
          </mxGeometry>
        </mxCell>
        <mxCell id="rF3TZCfOxEf6gZp-wX7_-9" value="sign out" style="ellipse;whiteSpace=wrap;html=1;" vertex="1" parent="1">
          <mxGeometry x="380" y="240" width="120" height="50" as="geometry" />
        </mxCell>
        <mxCell id="rF3TZCfOxEf6gZp-wX7_-10" value="login in " style="ellipse;whiteSpace=wrap;html=1;" vertex="1" parent="1">
          <mxGeometry x="380" y="310" width="120" height="50" as="geometry" />
        </mxCell>
        <mxCell id="rF3TZCfOxEf6gZp-wX7_-11" value="Analyze Market Data" style="ellipse;whiteSpace=wrap;html=1;" vertex="1" parent="1">
          <mxGeometry x="380" y="390" width="120" height="50" as="geometry" />
        </mxCell>
        <mxCell id="rF3TZCfOxEf6gZp-wX7_-12" value="Create and Backtest" style="ellipse;whiteSpace=wrap;html=1;" vertex="1" parent="1">
          <mxGeometry x="380" y="460" width="120" height="50" as="geometry" />
        </mxCell>
        <mxCell id="rF3TZCfOxEf6gZp-wX7_-13" value="Trading Strategy   " style="ellipse;whiteSpace=wrap;html=1;" vertex="1" parent="1">
          <mxGeometry x="380" y="520" width="120" height="50" as="geometry" />
        </mxCell>
        <mxCell id="rF3TZCfOxEf6gZp-wX7_-14" value="" style="endArrow=none;html=1;rounded=0;" edge="1" parent="1" target="rF3TZCfOxEf6gZp-wX7_-9">
          <mxGeometry width="50" height="50" relative="1" as="geometry">
            <mxPoint x="190" y="400" as="sourcePoint" />
            <mxPoint x="240" y="350" as="targetPoint" />
          </mxGeometry>
        </mxCell>
        <mxCell id="rF3TZCfOxEf6gZp-wX7_-15" value="" style="endArrow=none;html=1;rounded=0;" edge="1" parent="1" target="rF3TZCfOxEf6gZp-wX7_-10">
          <mxGeometry width="50" height="50" relative="1" as="geometry">
            <mxPoint x="190" y="400" as="sourcePoint" />
            <mxPoint x="413" y="295" as="targetPoint" />
          </mxGeometry>
        </mxCell>
        <mxCell id="rF3TZCfOxEf6gZp-wX7_-16" value="" style="endArrow=none;html=1;rounded=0;" edge="1" parent="1" target="rF3TZCfOxEf6gZp-wX7_-11">
          <mxGeometry width="50" height="50" relative="1" as="geometry">
            <mxPoint x="190" y="400" as="sourcePoint" />
            <mxPoint x="399" y="358" as="targetPoint" />
          </mxGeometry>
        </mxCell>
        <mxCell id="rF3TZCfOxEf6gZp-wX7_-17" value="" style="endArrow=none;html=1;rounded=0;" edge="1" parent="1" target="rF3TZCfOxEf6gZp-wX7_-12">
          <mxGeometry width="50" height="50" relative="1" as="geometry">
            <mxPoint x="200" y="410" as="sourcePoint" />
            <mxPoint x="391" y="421" as="targetPoint" />
          </mxGeometry>
        </mxCell>
        <mxCell id="rF3TZCfOxEf6gZp-wX7_-18" value="" style="endArrow=none;html=1;rounded=0;exitX=0.5;exitY=0.5;exitDx=0;exitDy=0;exitPerimeter=0;" edge="1" parent="1" source="rF3TZCfOxEf6gZp-wX7_-3">
          <mxGeometry width="50" height="50" relative="1" as="geometry">
            <mxPoint x="190" y="480" as="sourcePoint" />
            <mxPoint x="382" y="540" as="targetPoint" />
          </mxGeometry>
        </mxCell>
      </root>
    </mxGraphModel>
  </diagram>
</mxfile>
